<?xml version="1.0" encoding="UTF-8"?>
<svg version="1.1" xmlns="http://www.w3.org/2000/svg" width="256" height="256">
<path d="M0 0 C0.95018005 0.00359528 1.90036011 0.00719055 2.8793335 0.01089478 C4.37184883 0.01067574 4.37184883 0.01067574 5.89451599 0.01045227 C9.20059348 0.01115186 12.5066154 0.01894637 15.81268311 0.02676392 C18.09811879 0.02862793 20.38355487 0.03005191 22.66899109 0.03105164 C28.69751073 0.03487809 34.72600644 0.04470947 40.7545166 0.05575562 C46.90085527 0.06596699 53.04719778 0.07054867 59.19354248 0.07559204 C71.26321447 0.08633162 83.33286868 0.10340957 95.40252686 0.12442017 C95.73252686 5.73442017 96.06252686 11.34442017 96.40252686 17.12442017 C101.68252686 17.45442017 106.96252686 17.78442017 112.40252686 18.12442017 C112.73252686 23.40442017 113.06252686 28.68442017 113.40252686 34.12442017 C118.35252686 34.45442017 123.30252686 34.78442017 128.40252686 35.12442017 C129.83199706 40.84230099 129.46145187 46.23191855 129.40252686 52.12442017 C135.01252686 52.12442017 140.62252686 52.12442017 146.40252686 52.12442017 C146.42507735 63.18977238 146.44344163 74.25510945 146.45433903 85.32047939 C146.45956799 90.45801583 146.46666587 95.59553579 146.47796631 100.73306274 C146.48879473 105.68673427 146.49480359 110.6403899 146.4974041 115.59407234 C146.49925843 117.48839633 146.50287919 119.3827194 146.50825691 121.27703667 C146.51546675 123.92076402 146.51651782 126.56442487 146.51605225 129.2081604 C146.51964752 129.9993779 146.5232428 130.7905954 146.52694702 131.60578918 C146.51657902 137.010368 146.51657902 137.010368 145.40252686 138.12442017 C142.7101691 138.36120733 140.0375453 138.54640042 137.34002686 138.68692017 C136.20210693 138.75169556 136.20210693 138.75169556 135.04119873 138.81777954 C133.16187248 138.9241565 131.28222442 139.02481951 129.40252686 139.12442017 C129.40252686 144.07442017 129.40252686 149.02442017 129.40252686 154.12442017 C125.48754645 154.90741625 122.50360904 155.23407176 118.59002686 155.18692017 C117.61420654 155.17789673 116.63838623 155.16887329 115.63299561 155.15957642 C114.52891357 155.14217407 114.52891357 155.14217407 113.40252686 155.12442017 C113.34194092 156.2678186 113.28135498 157.41121704 113.21893311 158.58926392 C113.13454258 160.08016321 113.04989384 161.57104791 112.96502686 163.06192017 C112.92571045 163.81666626 112.88639404 164.57141235 112.84588623 165.34902954 C112.51580811 171.01113892 112.51580811 171.01113892 111.40252686 172.12442017 C108.70383636 172.19767452 106.03750129 172.21664368 103.34002686 172.18692017 C100.72065186 172.16629517 98.10127686 172.14567017 95.40252686 172.12442017 C95.40252686 177.40442017 95.40252686 182.68442017 95.40252686 188.12442017 C92.33719521 189.65708599 89.13498414 189.22718488 85.77752686 189.18692017 C85.07112061 189.18240845 84.36471436 189.17789673 83.63690186 189.17324829 C81.8920741 189.16145891 80.14728986 189.14352341 78.40252686 189.12442017 C78.41412842 190.2678186 78.42572998 191.41121704 78.43768311 192.58926392 C78.44705973 194.08014771 78.45616007 195.57103326 78.46502686 197.06192017 C78.47340576 197.81666626 78.48178467 198.57141235 78.49041748 199.34902954 C78.49905126 201.2743633 78.45477018 203.19977598 78.40252686 205.12442017 C77.40252686 206.12442017 77.40252686 206.12442017 73.80487061 206.22207642 C72.31655818 206.21540237 70.82826253 206.203442 69.34002686 206.18692017 C68.58141357 206.18240845 67.82280029 206.17789673 67.04119873 206.17324829 C65.16160814 206.16142697 63.28205787 206.14349094 61.40252686 206.12442017 C61.41412842 207.2678186 61.42572998 208.41121704 61.43768311 209.58926392 C61.44705973 211.08014771 61.45616007 212.57103326 61.46502686 214.06192017 C61.47340576 214.81666626 61.48178467 215.57141235 61.49041748 216.34902954 C61.49905126 218.2743633 61.45477018 220.19977598 61.40252686 222.12442017 C60.40252686 223.12442017 60.40252686 223.12442017 56.80487061 223.22207642 C55.3165543 223.21633288 53.82826389 223.20331907 52.34002686 223.18692017 C49.72065186 223.16629517 47.10127686 223.14567017 44.40252686 223.12442017 C44.40252686 228.73442017 44.40252686 234.34442017 44.40252686 240.12442017 C10.41252686 240.12442017 -23.57747314 240.12442017 -58.59747314 240.12442017 C-58.59747314 234.51442017 -58.59747314 228.90442017 -58.59747314 223.12442017 C-64.20747314 223.12442017 -69.81747314 223.12442017 -75.59747314 223.12442017 C-75.59747314 217.51442017 -75.59747314 211.90442017 -75.59747314 206.12442017 C-80.81810589 206.16399174 -80.81810589 206.16399174 -86.03863525 206.21450806 C-87.89181073 206.22165961 -89.74496622 206.17470537 -91.59747314 206.12442017 C-92.59747314 205.12442017 -92.59747314 205.12442017 -92.69512939 201.52676392 C-92.68845535 200.03845149 -92.67649498 198.55015585 -92.65997314 197.06192017 C-92.65546143 196.30330688 -92.65094971 195.5446936 -92.64630127 194.76309204 C-92.63447995 192.88350145 -92.61654392 191.00395118 -92.59747314 189.12442017 C-93.65708252 189.13602173 -94.71669189 189.14762329 -95.80841064 189.15957642 C-97.19642972 189.16895492 -98.5844507 189.17805506 -99.97247314 189.18692017 C-100.67114502 189.19529907 -101.36981689 189.20367798 -102.08966064 189.21231079 C-107.37091064 189.23770142 -107.37091064 189.23770142 -109.59747314 188.12442017 C-109.62059612 177.18945545 -109.638388 166.25449651 -109.64928532 155.31951237 C-109.65451425 150.24250999 -109.66161207 145.16552428 -109.6729126 140.08853149 C-109.68374113 135.19321465 -109.68974991 130.29791388 -109.69235039 125.40258598 C-109.6942047 123.53059066 -109.69782542 121.65859626 -109.7032032 119.78660774 C-109.71041319 117.17401317 -109.71146411 114.5614859 -109.71099854 111.94888306 C-109.71459381 111.1670163 -109.71818909 110.38514954 -109.72189331 109.57958984 C-109.71152531 104.23847233 -109.71152531 104.23847233 -108.59747314 103.12442017 C-106.0695392 102.88770034 -103.56812348 102.70298766 -101.03497314 102.56192017 C-97.35341064 102.34535767 -97.35341064 102.34535767 -93.59747314 102.12442017 C-93.26747314 96.84442017 -92.93747314 91.56442017 -92.59747314 86.12442017 C-86.98747314 86.12442017 -81.37747314 86.12442017 -75.59747314 86.12442017 C-75.59747314 80.51442017 -75.59747314 74.90442017 -75.59747314 69.12442017 C-69.98747314 69.12442017 -64.37747314 69.12442017 -58.59747314 69.12442017 C-58.59747314 63.51442017 -58.59747314 57.90442017 -58.59747314 52.12442017 C-52.98747314 52.12442017 -47.37747314 52.12442017 -41.59747314 52.12442017 C-41.59747314 46.51442017 -41.59747314 40.90442017 -41.59747314 35.12442017 C-35.98747314 35.12442017 -30.37747314 35.12442017 -24.59747314 35.12442017 C-24.59747314 29.51442017 -24.59747314 23.90442017 -24.59747314 18.12442017 C-18.98747314 18.12442017 -13.37747314 18.12442017 -7.59747314 18.12442017 C-7.63704796 12.57468895 -7.63704796 12.57468895 -7.68756104 7.02505493 C-7.69470405 5.05796042 -7.64779207 3.09088396 -7.59747314 1.12442017 C-5.63318947 -0.83986351 -2.61450151 0.004181 0 0 Z " fill="#E8B96B" transform="translate(109.59747314453125,7.875579833984375)"/>
<path d="M0 0 C0.95018005 0.00359528 1.90036011 0.00719055 2.8793335 0.01089478 C4.37184883 0.01067574 4.37184883 0.01067574 5.89451599 0.01045227 C9.20059348 0.01115186 12.5066154 0.01894637 15.81268311 0.02676392 C18.09811879 0.02862793 20.38355487 0.03005191 22.66899109 0.03105164 C28.69751073 0.03487809 34.72600644 0.04470947 40.7545166 0.05575562 C46.90085527 0.06596699 53.04719778 0.07054867 59.19354248 0.07559204 C71.26321447 0.08633162 83.33286868 0.10340957 95.40252686 0.12442017 C95.73252686 5.73442017 96.06252686 11.34442017 96.40252686 17.12442017 C101.68252686 17.45442017 106.96252686 17.78442017 112.40252686 18.12442017 C112.73252686 23.40442017 113.06252686 28.68442017 113.40252686 34.12442017 C118.35252686 34.45442017 123.30252686 34.78442017 128.40252686 35.12442017 C129.83199706 40.84230099 129.46145187 46.23191855 129.40252686 52.12442017 C135.01252686 52.12442017 140.62252686 52.12442017 146.40252686 52.12442017 C146.42507735 63.18977238 146.44344163 74.25510945 146.45433903 85.32047939 C146.45956799 90.45801583 146.46666587 95.59553579 146.47796631 100.73306274 C146.48879473 105.68673427 146.49480359 110.6403899 146.4974041 115.59407234 C146.49925843 117.48839633 146.50287919 119.3827194 146.50825691 121.27703667 C146.51546675 123.92076402 146.51651782 126.56442487 146.51605225 129.2081604 C146.51964752 129.9993779 146.5232428 130.7905954 146.52694702 131.60578918 C146.51657902 137.010368 146.51657902 137.010368 145.40252686 138.12442017 C142.7101691 138.36120733 140.0375453 138.54640042 137.34002686 138.68692017 C136.20210693 138.75169556 136.20210693 138.75169556 135.04119873 138.81777954 C133.16187248 138.9241565 131.28222442 139.02481951 129.40252686 139.12442017 C129.40252686 144.07442017 129.40252686 149.02442017 129.40252686 154.12442017 C125.48754645 154.90741625 122.50360904 155.23407176 118.59002686 155.18692017 C117.61420654 155.17789673 116.63838623 155.16887329 115.63299561 155.15957642 C114.52891357 155.14217407 114.52891357 155.14217407 113.40252686 155.12442017 C113.34194092 156.2678186 113.28135498 157.41121704 113.21893311 158.58926392 C113.13454258 160.08016321 113.04989384 161.57104791 112.96502686 163.06192017 C112.92571045 163.81666626 112.88639404 164.57141235 112.84588623 165.34902954 C112.51580811 171.01113892 112.51580811 171.01113892 111.40252686 172.12442017 C108.70383636 172.19767452 106.03750129 172.21664368 103.34002686 172.18692017 C100.72065186 172.16629517 98.10127686 172.14567017 95.40252686 172.12442017 C95.40252686 177.40442017 95.40252686 182.68442017 95.40252686 188.12442017 C92.33719521 189.65708599 89.13498414 189.22718488 85.77752686 189.18692017 C85.07112061 189.18240845 84.36471436 189.17789673 83.63690186 189.17324829 C81.8920741 189.16145891 80.14728986 189.14352341 78.40252686 189.12442017 C78.41412842 190.2678186 78.42572998 191.41121704 78.43768311 192.58926392 C78.44705973 194.08014771 78.45616007 195.57103326 78.46502686 197.06192017 C78.47340576 197.81666626 78.48178467 198.57141235 78.49041748 199.34902954 C78.49905126 201.2743633 78.45477018 203.19977598 78.40252686 205.12442017 C77.40252686 206.12442017 77.40252686 206.12442017 73.80487061 206.22207642 C72.31655818 206.21540237 70.82826253 206.203442 69.34002686 206.18692017 C68.58141357 206.18240845 67.82280029 206.17789673 67.04119873 206.17324829 C65.16160814 206.16142697 63.28205787 206.14349094 61.40252686 206.12442017 C61.41412842 207.2678186 61.42572998 208.41121704 61.43768311 209.58926392 C61.44705973 211.08014771 61.45616007 212.57103326 61.46502686 214.06192017 C61.47340576 214.81666626 61.48178467 215.57141235 61.49041748 216.34902954 C61.49905126 218.2743633 61.45477018 220.19977598 61.40252686 222.12442017 C60.40252686 223.12442017 60.40252686 223.12442017 56.80487061 223.22207642 C55.3165543 223.21633288 53.82826389 223.20331907 52.34002686 223.18692017 C49.72065186 223.16629517 47.10127686 223.14567017 44.40252686 223.12442017 C44.40252686 228.73442017 44.40252686 234.34442017 44.40252686 240.12442017 C10.41252686 240.12442017 -23.57747314 240.12442017 -58.59747314 240.12442017 C-58.59747314 234.51442017 -58.59747314 228.90442017 -58.59747314 223.12442017 C-64.20747314 223.12442017 -69.81747314 223.12442017 -75.59747314 223.12442017 C-75.59747314 217.51442017 -75.59747314 211.90442017 -75.59747314 206.12442017 C-80.81810589 206.16399174 -80.81810589 206.16399174 -86.03863525 206.21450806 C-87.89181073 206.22165961 -89.74496622 206.17470537 -91.59747314 206.12442017 C-92.59747314 205.12442017 -92.59747314 205.12442017 -92.69512939 201.52676392 C-92.68845535 200.03845149 -92.67649498 198.55015585 -92.65997314 197.06192017 C-92.65546143 196.30330688 -92.65094971 195.5446936 -92.64630127 194.76309204 C-92.63447995 192.88350145 -92.61654392 191.00395118 -92.59747314 189.12442017 C-93.65708252 189.13602173 -94.71669189 189.14762329 -95.80841064 189.15957642 C-97.19642972 189.16895492 -98.5844507 189.17805506 -99.97247314 189.18692017 C-100.67114502 189.19529907 -101.36981689 189.20367798 -102.08966064 189.21231079 C-107.37091064 189.23770142 -107.37091064 189.23770142 -109.59747314 188.12442017 C-109.62059612 177.18945545 -109.638388 166.25449651 -109.64928532 155.31951237 C-109.65451425 150.24250999 -109.66161207 145.16552428 -109.6729126 140.08853149 C-109.68374113 135.19321465 -109.68974991 130.29791388 -109.69235039 125.40258598 C-109.6942047 123.53059066 -109.69782542 121.65859626 -109.7032032 119.78660774 C-109.71041319 117.17401317 -109.71146411 114.5614859 -109.71099854 111.94888306 C-109.71459381 111.1670163 -109.71818909 110.38514954 -109.72189331 109.57958984 C-109.71152531 104.23847233 -109.71152531 104.23847233 -108.59747314 103.12442017 C-106.0695392 102.88770034 -103.56812348 102.70298766 -101.03497314 102.56192017 C-97.35341064 102.34535767 -97.35341064 102.34535767 -93.59747314 102.12442017 C-93.26747314 96.84442017 -92.93747314 91.56442017 -92.59747314 86.12442017 C-86.98747314 86.12442017 -81.37747314 86.12442017 -75.59747314 86.12442017 C-75.59747314 80.51442017 -75.59747314 74.90442017 -75.59747314 69.12442017 C-69.98747314 69.12442017 -64.37747314 69.12442017 -58.59747314 69.12442017 C-58.59747314 63.51442017 -58.59747314 57.90442017 -58.59747314 52.12442017 C-52.98747314 52.12442017 -47.37747314 52.12442017 -41.59747314 52.12442017 C-41.59747314 46.51442017 -41.59747314 40.90442017 -41.59747314 35.12442017 C-35.98747314 35.12442017 -30.37747314 35.12442017 -24.59747314 35.12442017 C-24.59747314 29.51442017 -24.59747314 23.90442017 -24.59747314 18.12442017 C-18.98747314 18.12442017 -13.37747314 18.12442017 -7.59747314 18.12442017 C-7.63704796 12.57468895 -7.63704796 12.57468895 -7.68756104 7.02505493 C-7.69470405 5.05796042 -7.64779207 3.09088396 -7.59747314 1.12442017 C-5.63318947 -0.83986351 -2.61450151 0.004181 0 0 Z M9.40252686 18.12442017 C9.40252686 23.73442017 9.40252686 29.34442017 9.40252686 35.12442017 C3.79252686 35.12442017 -1.81747314 35.12442017 -7.59747314 35.12442017 C-7.59747314 40.73442017 -7.59747314 46.34442017 -7.59747314 52.12442017 C-13.20747314 52.12442017 -18.81747314 52.12442017 -24.59747314 52.12442017 C-24.59747314 57.73442017 -24.59747314 63.34442017 -24.59747314 69.12442017 C-30.20747314 69.12442017 -35.81747314 69.12442017 -41.59747314 69.12442017 C-41.59747314 74.73442017 -41.59747314 80.34442017 -41.59747314 86.12442017 C-47.20747314 86.12442017 -52.81747314 86.12442017 -58.59747314 86.12442017 C-58.59747314 91.73442017 -58.59747314 97.34442017 -58.59747314 103.12442017 C-64.20747314 103.12442017 -69.81747314 103.12442017 -75.59747314 103.12442017 C-75.59747314 108.73442017 -75.59747314 114.34442017 -75.59747314 120.12442017 C-80.87747314 120.12442017 -86.15747314 120.12442017 -91.59747314 120.12442017 C-91.59747314 136.95442017 -91.59747314 153.78442017 -91.59747314 171.12442017 C-86.31747314 171.12442017 -81.03747314 171.12442017 -75.59747314 171.12442017 C-75.59747314 176.73442017 -75.59747314 182.34442017 -75.59747314 188.12442017 C-69.98747314 188.12442017 -64.37747314 188.12442017 -58.59747314 188.12442017 C-58.59747314 193.73442017 -58.59747314 199.34442017 -58.59747314 205.12442017 C-52.98747314 205.12442017 -47.37747314 205.12442017 -41.59747314 205.12442017 C-41.59747314 210.73442017 -41.59747314 216.34442017 -41.59747314 222.12442017 C-18.82747314 222.12442017 3.94252686 222.12442017 27.40252686 222.12442017 C27.40252686 216.51442017 27.40252686 210.90442017 27.40252686 205.12442017 C33.01252686 205.12442017 38.62252686 205.12442017 44.40252686 205.12442017 C44.40252686 199.51442017 44.40252686 193.90442017 44.40252686 188.12442017 C50.01252686 188.12442017 55.62252686 188.12442017 61.40252686 188.12442017 C61.40252686 182.51442017 61.40252686 176.90442017 61.40252686 171.12442017 C67.01252686 171.12442017 72.62252686 171.12442017 78.40252686 171.12442017 C78.40252686 165.51442017 78.40252686 159.90442017 78.40252686 154.12442017 C84.01252686 154.12442017 89.62252686 154.12442017 95.40252686 154.12442017 C95.40252686 148.84442017 95.40252686 143.56442017 95.40252686 138.12442017 C101.01252686 138.12442017 106.62252686 138.12442017 112.40252686 138.12442017 C112.40252686 132.18442017 112.40252686 126.24442017 112.40252686 120.12442017 C117.68252686 120.12442017 122.96252686 120.12442017 128.40252686 120.12442017 C128.40252686 103.29442017 128.40252686 86.46442017 128.40252686 69.12442017 C123.12252686 69.12442017 117.84252686 69.12442017 112.40252686 69.12442017 C112.40252686 63.51442017 112.40252686 57.90442017 112.40252686 52.12442017 C106.79252686 52.12442017 101.18252686 52.12442017 95.40252686 52.12442017 C95.40252686 46.51442017 95.40252686 40.90442017 95.40252686 35.12442017 C89.79252686 35.12442017 84.18252686 35.12442017 78.40252686 35.12442017 C78.40252686 29.51442017 78.40252686 23.90442017 78.40252686 18.12442017 C55.63252686 18.12442017 32.86252686 18.12442017 9.40252686 18.12442017 Z " fill="#7B4819" transform="translate(109.59747314453125,7.875579833984375)"/>
<path d="M0 0 C5.28 0 10.56 0 16 0 C16 16.5 16 33 16 50 C10.72 50 5.44 50 0 50 C0 55.94 0 61.88 0 68 C-5.61 68 -11.22 68 -17 68 C-17 73.28 -17 78.56 -17 84 C-22.61 84 -28.22 84 -34 84 C-34 89.61 -34 95.22 -34 101 C-39.61 101 -45.22 101 -51 101 C-51 106.61 -51 112.22 -51 118 C-56.61 118 -62.22 118 -68 118 C-68 123.61 -68 129.22 -68 135 C-73.61 135 -79.22 135 -85 135 C-85 140.61 -85 146.22 -85 152 C-107.77 152 -130.54 152 -154 152 C-154 146.39 -154 140.78 -154 135 C-137.17 135 -120.34 135 -103 135 C-103 129.39 -103 123.78 -103 118 C-97.06 118 -91.12 118 -85 118 C-85 112.39 -85 106.78 -85 101 C-79.39 101 -73.78 101 -68 101 C-68 95.39 -68 89.78 -68 84 C-62.39 84 -56.78 84 -51 84 C-51 78.72 -51 73.44 -51 68 C-45.39 68 -39.78 68 -34 68 C-34 62.06 -34 56.12 -34 50 C-28.39 50 -22.78 50 -17 50 C-17 44.39 -17 38.78 -17 33 C-11.39 33 -5.78 33 0 33 C0 22.11 0 11.22 0 0 Z " fill="#CA9B41" transform="translate(222,78)"/>
<path d="M0 0 C5.28 0 10.56 0 16 0 C16 5.61 16 11.22 16 17 C21.61 17 27.22 17 33 17 C33 22.28 33 27.56 33 33 C38.61 33 44.22 33 50 33 C50 38.61 50 44.22 50 50 C72.77 50 95.54 50 119 50 C119 55.61 119 61.22 119 67 C113.06 67 107.12 67 101 67 C101 72.61 101 78.22 101 84 C78.56 84 56.12 84 33 84 C33 78.39 33 72.78 33 67 C27.39 67 21.78 67 16 67 C16 61.39 16 55.78 16 50 C10.72 50 5.44 50 0 50 C0 33.5 0 17 0 0 Z " fill="#E0AD5B" transform="translate(18,129)"/>
<path d="M0 0 C0.95018005 0.00359528 1.90036011 0.00719055 2.8793335 0.01089478 C4.37184883 0.01067574 4.37184883 0.01067574 5.89451599 0.01045227 C9.20059348 0.01115186 12.5066154 0.01894637 15.81268311 0.02676392 C18.09811879 0.02862793 20.38355487 0.03005191 22.66899109 0.03105164 C28.69751073 0.03487809 34.72600644 0.04470947 40.7545166 0.05575562 C46.90085527 0.06596699 53.04719778 0.07054867 59.19354248 0.07559204 C71.26321447 0.08633162 83.33286868 0.10340957 95.40252686 0.12442017 C95.89752686 8.53942017 95.89752686 8.53942017 96.40252686 17.12442017 C101.68252686 17.45442017 106.96252686 17.78442017 112.40252686 18.12442017 C112.40252686 23.73442017 112.40252686 29.34442017 112.40252686 35.12442017 C112.07252686 35.12442017 111.74252686 35.12442017 111.40252686 35.12442017 C111.40252686 29.84442017 111.40252686 24.56442017 111.40252686 19.12442017 C106.226937 19.16393498 106.226937 19.16393498 101.05145264 19.21450806 C95.62474908 19.23553128 95.62474908 19.23553128 93.40252686 18.12442017 C93.40252686 13.17442017 93.40252686 8.22442017 93.40252686 3.12442017 C60.40252686 2.79442017 27.40252686 2.46442017 -6.59747314 2.12442017 C-6.59747314 7.40442017 -6.59747314 12.68442017 -6.59747314 18.12442017 C-6.92747314 18.12442017 -7.25747314 18.12442017 -7.59747314 18.12442017 C-7.62431627 15.31185735 -7.64423502 12.49954776 -7.65997314 9.68692017 C-7.66835205 8.88447876 -7.67673096 8.08203735 -7.68536377 7.25527954 C-7.69398745 5.21146796 -7.64975464 3.16758115 -7.59747314 1.12442017 C-5.63318947 -0.83986351 -2.61450151 0.004181 0 0 Z " fill="#936B55" transform="translate(109.59747314453125,7.875579833984375)"/>
<path d="M0 0 C5.61 0 11.22 0 17 0 C17 5.61 17 11.22 17 17 C11.39 17 5.78 17 0 17 C0 11.39 0 5.78 0 0 Z " fill="#9B5C1F" transform="translate(85,111)"/>
<path d="M0 0 C5.61 0 11.22 0 17 0 C17 5.61 17 11.22 17 17 C11.39 17 5.78 17 0 17 C0 11.39 0 5.78 0 0 Z " fill="#9C5C1F" transform="translate(137,60)"/>
<path d="M0 0 C5.28 0 10.56 0 16 0 C16 5.61 16 11.22 16 17 C10.72 17 5.44 17 0 17 C0 11.39 0 5.78 0 0 Z " fill="#CA9B41" transform="translate(52,196)"/>
<path d="M0 0 C5.28 0 10.56 0 16 0 C16 5.61 16 11.22 16 17 C10.72 17 5.44 17 0 17 C0 11.39 0 5.78 0 0 Z " fill="#CA9B41" transform="translate(35,179)"/>
<path d="M0 0 C5.28 0 10.56 0 16 0 C16 5.61 16 11.22 16 17 C10.72 17 5.44 17 0 17 C0 11.39 0 5.78 0 0 Z " fill="#CA9B41" transform="translate(18,162)"/>
</svg>
